<?xml version="1.0" encoding="iso-8859-1"?>
<!-- Generator: Adobe Illustrator 19.1.0, SVG Export Plug-In . SVG Version: 6.00 Build 0)  -->
<svg version="1.1" id="Capa_1" xmlns="http://www.w3.org/2000/svg" xmlns:xlink="http://www.w3.org/1999/xlink" x="0px" y="0px"
	 viewBox="0 0 513.32 513.32" style="enable-background:new 0 0 513.32 513.32;" xml:space="preserve">
<g>
	<g>
		<g>
			<polygon points="171.107,278.048 286.604,278.048 218.161,419.211 256.661,438.461 357.185,237.411 171.107,237.411 			"/>
			<path d="M470.544,192.495c-34.221,0-64.165-27.805-64.165-64.165V0H299.438v85.553c0,23.527-19.249,42.777-42.777,42.777
				s-42.777-19.249-42.777-42.777V0H106.943v128.33c0,34.221-29.944,64.165-64.165,64.165H21.389V513.32h470.543V192.495H470.544z
				 M449.156,470.543H64.166v-237.41c49.193-10.694,85.553-53.471,85.553-104.803V42.777h21.388v42.777
				c0,47.055,38.499,85.553,85.553,85.553s85.553-38.499,85.553-85.553V42.777h21.388v85.553c0,51.332,36.36,94.109,85.553,104.803
				v237.41H449.156z"/>
		</g>
	</g>
</g>
<g>
</g>
<g>
</g>
<g>
</g>
<g>
</g>
<g>
</g>
<g>
</g>
<g>
</g>
<g>
</g>
<g>
</g>
<g>
</g>
<g>
</g>
<g>
</g>
<g>
</g>
<g>
</g>
<g>
</g>
</svg>
